<svg width="30" height="24" viewBox="0 0 30 24" fill="none" xmlns="http://www.w3.org/2000/svg">
<g clip-path="url(#clip0_69_81)">
<path d="M20.3781 2.09068C20.6547 1.4485 20.4484 0.698495 19.8812 0.285995C19.3141 -0.126505 18.5406 -0.0890046 18.0109 0.37037L6.01093 10.8704C5.54218 11.2829 5.37343 11.9438 5.59374 12.5251C5.81405 13.1063 6.37655 13.5001 6.99999 13.5001H12.2266L8.62186 21.9094C8.3453 22.5516 8.55155 23.3016 9.11874 23.7141C9.68593 24.1266 10.4594 24.0891 10.9891 23.6297L22.9891 13.1297C23.4578 12.7172 23.6266 12.0563 23.4062 11.4751C23.1859 10.8938 22.6281 10.5047 22 10.5047H16.7734L20.3781 2.09068Z" fill="black"/>
</g>
<defs>
<clipPath id="clip0_69_81">
<rect width="30" height="24" fill="white"/>
</clipPath>
</defs>
</svg>
