<svg width="30" height="24" viewBox="0 0 30 24" fill="none" xmlns="http://www.w3.org/2000/svg">
<path d="M13.3984 0.243799C14.0969 -0.0796387 14.9031 -0.0796387 15.6016 0.243799L25.8484 4.97817C26.2469 5.16099 26.5 5.55942 26.5 6.00005C26.5 6.44067 26.2469 6.83911 25.8484 7.02192L15.6016 11.7563C14.9031 12.0797 14.0969 12.0797 13.3984 11.7563L3.15156 7.02192C2.75313 6.83442 2.5 6.43599 2.5 6.00005C2.5 5.56411 2.75313 5.16099 3.15156 4.97817L13.3984 0.243799ZM23.3547 9.82505L25.8484 10.9782C26.2469 11.161 26.5 11.5594 26.5 12C26.5 12.4407 26.2469 12.8391 25.8484 13.0219L15.6016 17.7563C14.9031 18.0797 14.0969 18.0797 13.3984 17.7563L3.15156 13.0219C2.75313 12.8344 2.5 12.436 2.5 12C2.5 11.5641 2.75313 11.161 3.15156 10.9782L5.64531 9.82505L12.7703 13.1157C13.8672 13.6219 15.1328 13.6219 16.2297 13.1157L23.3547 9.82505ZM16.2297 19.1157L23.3547 15.825L25.8484 16.9782C26.2469 17.161 26.5 17.5594 26.5 18C26.5 18.4407 26.2469 18.8391 25.8484 19.0219L15.6016 23.7563C14.9031 24.0797 14.0969 24.0797 13.3984 23.7563L3.15156 19.0219C2.75313 18.8344 2.5 18.436 2.5 18C2.5 17.5641 2.75313 17.161 3.15156 16.9782L5.64531 15.825L12.7703 19.1157C13.8672 19.6219 15.1328 19.6219 16.2297 19.1157Z" fill="black"/>
</svg>
